<?xml version="1.0" standalone="no"?>
<!DOCTYPE svg PUBLIC "-//W3C//DTD SVG 20010904//EN">
<svg version="1.0" xmlns="http://www.w3.org/2000/svg"
 width="1072.000000pt" height="980.000000pt" viewBox="0 0 1072.000000 980.000000"
 preserveAspectRatio="xMidYMid meet">

<g transform="translate(0.000000,980.000000) scale(0.100000,-0.100000)"
fill="#000000" stroke="none">
<path d="M0 4895 l0 -4895 5360 0 5360 0 0 4895 0 4895 -5360 0 -5360 0 0
-4895z m10635 4846 c-106 -103 -2503 -2284 -2515 -2288 -57 -17 -103 -48 -130
-84 -16 -23 -30 -47 -30 -53 0 -11 -110 -126 -121 -126 -3 0 -9 34 -12 75 -9
126 -62 185 -164 185 -62 0 -102 -17 -132 -57 l-20 -28 -1 43 c0 41 -1 42 -35
42 l-35 0 0 -245 0 -245 40 0 40 0 0 176 0 176 34 34 c29 29 41 34 83 34 92 0
115 -39 111 -182 l-3 -95 -1194 -1089 c-656 -599 -1195 -1089 -1198 -1089 -16
0 -2228 2031 -2216 2033 12 3 14 34 11 195 -3 163 -6 197 -21 225 -50 92 -255
97 -325 7 -30 -38 -28 -52 9 -60 25 -6 36 -2 58 19 54 52 144 56 181 9 28 -35
26 -81 -2 -93 -21 -8 -153 -30 -202 -34 -11 -1 -529 464 -1406 1264 -764 696
-1389 1268 -1389 1273 -1 4 2387 7 5306 7 l5308 0 -30 -29z m-9335 -1156 c663
-604 1221 -1113 1240 -1132 l35 -34 -30 15 c-35 18 -126 21 -158 5 -12 -6 -34
-25 -49 -43 l-27 -31 -1 43 c0 41 -1 42 -35 42 l-35 0 0 -335 0 -335 35 0 35
0 0 127 0 127 33 -31 c44 -42 69 -53 119 -53 85 1 153 51 189 140 22 55 18
185 -9 243 l-21 48 94 -87 95 -87 -22 -24 c-33 -36 -37 -118 -6 -163 46 -68
153 -92 230 -50 l36 19 134 -121 c949 -864 2148 -1962 2147 -1967 0 -5 -5118
-4677 -5264 -4805 l-55 -48 0 4858 0 4858 43 -40 c23 -23 584 -535 1247 -1139z
m9396 -8532 c-4 -4 -5313 4836 -5318 4848 -2 4 530 493 1182 1088 l1185 1081
3 -55 3 -55 39 0 40 0 0 94 0 93 53 49 52 49 6 -72 c14 -152 106 -233 250
-220 69 6 115 30 146 76 26 39 24 47 -17 56 -24 5 -34 1 -58 -26 -24 -27 -37
-33 -83 -36 -89 -7 -159 51 -159 129 l0 28 176 0 177 0 -7 62 c-12 115 -61
180 -154 203 l-44 11 1264 1153 1263 1153 3 -4853 c1 -2669 0 -4854 -2 -4856z
m-8162 7302 c37 -34 56 -84 56 -147 0 -79 -16 -122 -57 -158 -33 -30 -40 -32
-92 -28 -47 4 -59 10 -82 38 -69 82 -60 239 17 299 40 31 122 29 158 -4z
m5700 4 c30 -24 56 -69 56 -99 0 -19 -6 -20 -135 -20 -129 0 -135 1 -135 20 0
34 29 80 63 100 44 27 116 27 151 -1z m-5179 -278 c-8 -17 -21 -31 -28 -31
-13 1 -132 109 -125 115 2 2 39 10 83 17 l80 13 3 -42 c2 -24 -4 -55 -13 -72z
m-120 13 c36 -32 62 -61 59 -65 -9 -15 -108 -10 -131 6 -29 20 -38 62 -18 91
8 13 18 24 21 24 3 0 34 -25 69 -56z m5094 -4649 l2663 -2430 -2671 -3 c-1469
-1 -3872 -1 -5339 0 l-2669 3 2666 2433 c1466 1338 2671 2431 2677 2430 6 -2
1209 -1096 2673 -2433z"/>
<path d="M7230 7610 c-25 -25 -25 -42 -2 -63 22 -20 63 -22 80 -5 18 18 15 53
-6 71 -25 22 -48 21 -72 -3z"/>
<path d="M5030 7600 c-138 -47 -216 -221 -180 -402 16 -82 39 -125 92 -175
109 -100 285 -96 385 9 43 44 60 89 68 176 l8 72 -127 0 -126 0 0 -35 0 -35
85 0 c47 0 85 -3 85 -7 0 -54 -50 -132 -101 -158 -33 -17 -125 -20 -166 -4
-74 28 -124 110 -131 215 -6 96 11 162 56 214 42 50 84 70 146 70 76 0 138
-37 172 -102 12 -24 21 -28 55 -28 37 0 40 2 34 23 -25 83 -90 146 -181 173
-63 19 -107 17 -174 -6z"/>
<path d="M3870 7488 l-1 -123 -22 25 c-41 47 -69 60 -125 60 -67 0 -109 -18
-149 -63 -79 -91 -82 -277 -6 -368 72 -85 210 -92 271 -14 26 33 32 32 32 -10
0 -33 2 -35 35 -35 l35 0 0 325 0 325 -35 0 -35 0 0 -122z m-55 -141 c78 -78
63 -267 -26 -313 -46 -23 -103 -18 -140 13 -42 36 -59 79 -59 152 0 120 48
181 144 181 41 0 53 -5 81 -33z"/>
<path d="M7020 7285 l0 -325 35 0 35 0 0 325 0 325 -35 0 -35 0 0 -325z"/>
<path d="M4195 7436 c-41 -18 -90 -72 -111 -121 -23 -54 -23 -176 0 -230 9
-22 29 -53 44 -69 84 -89 249 -87 325 3 35 42 34 57 -5 65 -26 5 -36 2 -53
-18 -28 -34 -57 -46 -107 -46 -58 0 -104 30 -128 83 -37 80 -43 77 155 77
l175 0 0 48 c0 100 -39 169 -115 203 -47 22 -137 24 -180 5z m170 -78 c25 -23
58 -96 48 -110 -7 -12 -273 -10 -273 2 0 26 30 78 59 103 44 36 126 39 166 5z"/>
<path d="M5615 7439 c-36 -11 -65 -34 -89 -72 -18 -27 -18 -27 9 -37 38 -14
45 -13 70 14 31 33 89 48 136 36 45 -12 58 -27 66 -73 7 -43 -6 -52 -92 -61
-160 -18 -215 -57 -215 -151 0 -44 5 -59 27 -86 34 -40 79 -59 138 -59 52 0
77 10 118 48 l27 26 0 -32 c0 -31 2 -32 40 -32 l40 0 0 163 c-1 228 -16 279
-97 313 -36 16 -132 17 -178 3z m180 -352 c-21 -45 -62 -67 -124 -67 -42 0
-57 5 -76 25 -30 29 -32 68 -5 95 22 22 33 25 140 43 l75 12 3 -37 c2 -21 -4
-53 -13 -71z"/>
<path d="M6091 7428 c-59 -29 -89 -92 -72 -149 16 -53 57 -84 143 -104 78 -19
128 -40 128 -54 0 -5 3 -16 6 -25 4 -10 -6 -27 -24 -46 -27 -26 -37 -30 -88
-30 -52 0 -59 3 -90 36 -29 30 -38 35 -64 29 -17 -4 -30 -11 -30 -16 0 -25 33
-69 67 -91 32 -19 51 -23 118 -23 67 0 86 4 118 23 46 29 67 68 67 124 0 74
-37 104 -173 139 -106 27 -135 69 -82 119 19 18 37 24 76 24 45 1 54 -3 80
-32 25 -28 35 -32 59 -27 35 8 36 16 13 57 -40 67 -164 90 -252 46z"/>
<path d="M6581 7428 c-103 -51 -149 -218 -95 -348 33 -77 112 -129 197 -130
134 0 217 96 217 253 0 116 -36 184 -122 228 -52 27 -140 25 -197 -3z m188
-73 c87 -74 74 -272 -22 -321 -39 -21 -119 -14 -149 12 -79 71 -75 248 7 312
41 33 123 31 164 -3z"/>
<path d="M7230 7205 l0 -245 35 0 35 0 0 245 0 245 -35 0 -35 0 0 -245z"/>
<path d="M950 7285 l0 -325 40 0 40 0 0 248 1 247 102 -247 101 -248 37 0 36
0 97 238 c54 130 102 241 107 247 5 5 9 -89 9 -238 l0 -247 35 0 35 0 0 325 0
325 -47 0 -48 0 -110 -270 c-60 -148 -112 -266 -116 -262 -5 5 -108 252 -216
520 -3 7 -24 12 -54 12 l-49 0 0 -325z"/>
<path d="M1809 7427 c-24 -13 -52 -38 -62 -55 l-19 -32 33 -14 c31 -13 33 -12
65 19 39 39 87 50 140 33 33 -11 41 -20 54 -56 14 -40 13 -45 -2 -56 -9 -7
-58 -18 -108 -24 -113 -15 -161 -38 -185 -88 -20 -42 -15 -100 12 -140 24 -37
84 -64 143 -64 57 0 81 10 123 48 l27 26 0 -32 c0 -30 2 -32 35 -32 l35 0 0
194 c0 184 -1 195 -23 227 -32 48 -79 69 -158 69 -50 0 -77 -6 -110 -23z m221
-262 c0 -87 -45 -137 -128 -143 -73 -5 -112 20 -112 74 0 28 6 38 32 54 18 11
53 22 78 25 25 4 61 10 80 15 19 4 38 8 43 9 4 1 7 -15 7 -34z"/>
<path d="M8480 7205 l0 -245 40 0 40 0 0 175 0 175 28 31 c23 26 38 33 80 37
51 4 52 5 52 38 0 33 -1 34 -42 34 -44 0 -87 -21 -113 -56 -13 -18 -14 -16
-15 19 0 36 -1 37 -35 37 l-35 0 0 -245z"/>
<path d="M8894 7431 c-41 -18 -84 -63 -84 -86 0 -7 15 -16 32 -21 29 -9 35 -7
56 18 45 53 144 59 182 10 25 -31 26 -78 3 -90 -10 -5 -45 -13 -78 -16 -154
-18 -206 -51 -213 -138 -5 -63 23 -113 78 -140 67 -34 179 -17 214 33 l16 23
0 -32 c0 -31 2 -32 40 -32 l40 0 0 183 c0 219 -11 255 -82 287 -56 26 -149 26
-204 1z m190 -356 c-24 -36 -65 -55 -121 -55 -53 1 -77 14 -92 52 -12 32 5 68
39 85 14 6 61 18 105 25 l80 13 3 -47 c2 -32 -3 -56 -14 -73z"/>
<path d="M9395 7436 c-51 -23 -77 -60 -83 -116 -8 -85 32 -120 176 -155 81
-19 109 -45 98 -90 -14 -55 -145 -77 -190 -32 -13 13 -25 29 -28 37 -3 9 -14
11 -41 6 -20 -4 -37 -11 -37 -15 0 -23 51 -79 90 -98 145 -74 333 39 280 168
-22 53 -52 69 -208 109 -83 21 -92 94 -15 126 49 21 99 10 134 -27 22 -24 33
-28 53 -23 15 3 28 10 31 14 9 14 -40 75 -75 92 -42 21 -141 23 -185 4z"/>
</g>
</svg>
