<?xml version="1.0" standalone="no"?>
<!DOCTYPE svg PUBLIC "-//W3C//DTD SVG 20010904//EN">
<svg version="1.0" xmlns="http://www.w3.org/2000/svg"
 width="978.000000pt" height="976.000000pt" viewBox="0 0 978.000000 976.000000"
 preserveAspectRatio="xMidYMid meet">

<g transform="translate(0.000000,976.000000) scale(0.100000,-0.100000)"
fill="#000000" stroke="none">
<path d="M20 4880 l0 -4880 4880 0 4880 0 0 4880 0 4880 -4880 0 -4880 0 0
-4880z m9730 0 l0 -4860 -4855 0 -4855 0 0 4860 0 4860 4855 0 4855 0 0 -4860z"/>
<path d="M70 9688 c0 -17 627 -650 2392 -2415 l2393 -2393 -2393 -2393 c-2305
-2305 -2434 -2437 -2385 -2437 5 0 1088 1080 2408 2400 l2400 2400 2400 -2400
c1366 -1366 2408 -2400 2417 -2400 10 0 18 6 18 12 0 7 -1081 1094 -2402 2415
l-2403 2403 2403 2403 c1321 1321 2402 2408 2402 2415 0 6 -8 12 -17 12 -10 0
-1054 -1036 -2418 -2400 l-2400 -2400 -2400 2400 c-1320 1320 -2403 2400
-2407 2400 -5 0 -8 -10 -8 -22z"/>
</g>
</svg>
